<?xml version="1.0" encoding="utf-8"?>
<!DOCTYPE svg PUBLIC "-//W3C//DTD SVG 1.1//EN" "http://www.w3.org/Graphics/SVG/1.1/DTD/svg11.dtd">
<svg version="1.1" id="Capa_1" xmlns="http://www.w3.org/2000/svg" xmlns:xlink="http://www.w3.org/1999/xlink" x="0px" y="0px"
	 width="177.119px" height="500px" viewBox="0 0 177.119 500" enable-background="new 0 0 177.119 500" xml:space="preserve">
<path fill="#FFFFFF" d="M169.312,454.495v14.604c0,0-8.327,27.966-71.553,27.966c-3.39,0-15.01,0-18.4,0
	c-63.225,0-71.553-27.966-71.553-27.966v-14.604c0,0,8.328,27.968,71.553,27.968c3.391,0,15.011,0,18.4,0
	C160.985,482.463,169.312,454.495,169.312,454.495z M169.312,212.607v232.51c0,0-8.327,29.59-71.553,29.59c-3.39,0-15.01,0-18.4,0
	c-63.225,0-71.553-29.59-71.553-29.59v-232.51c0-20.666,9.87-44.414,31.147-55.825c7.016-3.757,13.097-9.194,18.138-14.79
	c0.909,0.341,2.192,0.703,4.001,1.048c-1.312,2.245-5.043,8.534-6.534,10.014c2.022,0.357,3.988,0.703,3.988,0.703
	s4.377-4.98,6.579-10.099c2.016,0.247,4.433,0.468,7.324,0.646c-1.608,3.009-4.484,8.201-5.948,9.666c2.906,0,5.731,0,5.731,0
	s3.921-4.551,6.04-9.398c2.236,0.072,4.693,0.121,7.378,0.142v9.857c1.643,0,4.175,0,5.817,0v-9.857
	c2.685-0.021,5.141-0.069,7.377-0.142c2.12,4.848,6.041,9.398,6.041,9.398s2.825,0,5.732,0c-1.465-1.465-4.342-6.657-5.948-9.666
	c2.892-0.178,5.308-0.398,7.323-0.646c2.2,5.118,6.578,10.099,6.578,10.099s1.966-0.346,3.988-0.703
	c-1.491-1.479-5.223-7.77-6.533-10.014c1.808-0.345,3.091-0.707,4.001-1.048c5.04,5.596,11.123,11.033,18.137,14.79
	C159.442,168.193,169.312,191.941,169.312,212.607z M112.896,346.416c0-4.981-1.822-9.159-5.47-12.532
	c-3.644-3.372-8.96-5.924-15.947-7.654c-5.803-1.457-9.996-3.152-12.577-5.082c-2.582-1.929-3.874-4.334-3.874-7.223
	c0-3.249,1.192-5.885,3.579-7.906c2.385-2.019,5.808-3.028,10.274-3.028c4.799,0,8.483,1.199,11.051,3.598
	c2.565,2.401,3.851,5.546,3.851,9.434h8.566l0.09-0.273c0.153-5.256-1.919-9.873-6.221-13.851
	c-4.297-3.981-10.076-5.971-17.337-5.971c-6.744,0-12.235,1.736-16.473,5.206c-4.238,3.473-6.356,7.798-6.356,12.973
	c0,4.934,1.967,9.03,5.9,12.287c3.935,3.259,9.41,5.726,16.427,7.399c5.803,1.391,9.844,3.104,12.122,5.143
	c2.278,2.04,3.417,4.568,3.417,7.588c0,3.265-1.322,5.844-3.964,7.748c-2.645,1.9-6.228,2.853-10.754,2.853
	c-4.617,0-8.491-1.108-11.62-3.326c-3.129-2.216-4.693-5.452-4.693-9.706h-8.566l-0.092,0.274
	c-0.151,6.014,2.316,10.822,7.405,14.421c5.087,3.601,10.944,5.401,17.566,5.401c7.047,0,12.759-1.627,17.132-4.877
	C110.71,356.061,112.896,351.761,112.896,346.416z M22.432,118.78c1.615,1.458,4.884,3.787,7.803,3.899
	c3.418,0.134,2.321-2.729,2.321-2.729s12.186-10.558,24.207-20.962c-0.119,1.47-0.195,3.116-0.195,5.016c0,9.098,0,15.994,0,18.859
	l-2.487,2.279v6.76c0,0,0,4.249,33.653,4.249c33.656,0,33.656-4.249,33.656-4.249v-6.76l-2.489-2.283c0-2.864,0-9.759,0-18.855
	c0-12.106-2.871-14.981-2.871-14.981s-11.903-16.825-13.956-21.338c-0.879-1.934-1.862-3.238-2.708-4.128h0.282v-23.12h0.824
	c0,0,0.413-5.96,2.334-9.079c0.134-0.22,0.259-0.482,0.378-0.768l1.614,0.604c0.782,6.503,5.888,15.321,9.797,20.447
	c2.973,3.896,16.537,13.854,24.534,14.938c7.77,1.055,9.02-1.043,9.02-2.278s-0.318-1.109-12.436-8.827
	c-14.246-9.076-17.091-26.681-17.661-28.294c-0.569-1.614-1.994-4.178-6.075-4.178c-2.692,0-4.521,0.691-5.676,1.869l-1.822-0.682
	c0.342-3.281,0.385-6.32,0.385-6.32h-0.701v-1.788c0-7.261-5.887-13.146-13.145-13.146h-6.564c-7.262,0-13.146,5.885-13.146,13.146
	v1.788h-0.701c0,0,0.137,10.367,2.057,13.488c1.923,3.119,2.334,9.079,2.334,9.079h0.823v23.12h0.282
	c-0.002,0.003-0.004,0.004-0.007,0.006l-5.303,0.031c0,0-3.224-0.183-4.823,1.637C64.37,67.05,20.94,107.944,20.94,107.944
	s-2.824-1.19-2.806,2.229c0.017,2.921,2.234,6.265,3.641,7.927L22.432,118.78z"/>
</svg>
