<?xml version="1.0" encoding="utf-8"?>
<!DOCTYPE svg PUBLIC "-//W3C//DTD SVG 1.1//EN" "http://www.w3.org/Graphics/SVG/1.1/DTD/svg11.dtd">
<svg version="1.1" id="Capa_1" xmlns="http://www.w3.org/2000/svg" xmlns:xlink="http://www.w3.org/1999/xlink" x="0px" y="0px"
	 width="177.119px" height="500px" viewBox="0 0 177.119 500" enable-background="new 0 0 177.119 500" xml:space="preserve">
<path fill="#FFFFFF" d="M170.006,455.103v14.729c0,0-8.398,28.206-72.168,28.206c-3.419,0-15.14,0-18.559,0
	c-63.768,0-72.168-28.206-72.168-28.206v-14.729c0,0,8.4,28.207,72.168,28.207c3.419,0,15.14,0,18.559,0
	C161.608,483.31,170.006,455.103,170.006,455.103z M105.163,15.245c0-7.337-5.949-13.283-13.286-13.283h-6.634
	c-7.337,0-13.287,5.946-13.287,13.283v0.564h33.207V15.245z M75.685,39.859h25.749c0,0,0.417-6.023,2.355-9.173
	c0.137-0.224,0.266-0.485,0.386-0.776l1.623,0.607c0.791,6.572,5.959,15.488,9.908,20.666c3.001,3.938,16.713,14.002,24.794,15.099
	c7.852,1.063,9.116-1.055,9.116-2.303c0-1.247-0.323-1.124-12.567-8.923c-14.399-9.172-17.274-26.962-17.851-28.594
	c-0.573-1.632-2.012-4.225-6.138-4.225c-2.725,0-4.575,0.699-5.74,1.893l-1.835-0.686c0.345-3.319,0.386-6.393,0.386-6.393H71.249
	c0,0,0.139,10.478,2.081,13.634C75.269,33.836,75.685,39.859,75.685,39.859z M54.547,132.3c0,0,0,4.294,34.012,4.294
	c34.014,0,34.014-4.294,34.014-4.294v-6.834l-2.69-2.466c-3.562,1.202-11.873,2.604-31.323,2.604s-27.76-1.402-31.321-2.604
	l-2.69,2.466V132.3z M59.965,88.963c0,0-2.904,2.903-2.904,15.14c0,6.993,0,12.62,0,16.227C60.518,121.548,68.758,123,88.559,123
	c19.803,0,28.043-1.452,31.498-2.671c0-3.606,0-9.233,0-16.227c0-12.236-2.904-15.14-2.904-15.14s-12.026-17.004-14.101-21.564
	c-0.887-1.954-1.88-3.275-2.735-4.175H77.595h-0.794c-0.854,0.899-1.848,2.221-2.735,4.175
	C71.993,71.959,59.965,88.963,59.965,88.963z M22.563,119.038c1.631,1.472,4.935,3.827,7.884,3.941
	c3.456,0.131,2.348-2.756,2.348-2.756s10.6-9.189,21.834-18.91c0.409-9.818,2.821-12.351,2.821-12.351s12.027-17.004,14.102-21.564
	c0.879-1.942,1.864-3.251,2.715-4.15l-2.83,0.017c0,0-3.256-0.186-4.87,1.651c-1.62,1.841-45.508,43.169-45.508,43.169
	s-2.855-1.201-2.839,2.254c0.017,2.952,2.262,6.335,3.681,8.012L22.563,119.038z M100.599,62.017V40.923h-24.08v21.094h1.076
	H100.599z M170.006,212.769v234.508c0,0-8.398,29.847-72.168,29.847c-3.419,0-15.14,0-18.559,0
	c-63.768,0-72.168-29.847-72.168-29.847V212.769c0-20.844,9.954-44.796,31.416-56.305c7.075-3.79,13.209-9.274,18.293-14.918
	c0.917,0.344,2.211,0.709,4.036,1.058c-1.323,2.264-5.086,8.607-6.591,10.1c2.039,0.359,4.022,0.709,4.022,0.709
	s4.415-5.023,6.637-10.186c2.032,0.25,4.469,0.473,7.385,0.651c-1.62,3.034-4.521,8.271-5.998,9.748c2.931,0,5.78,0,5.78,0
	s3.955-4.589,6.093-9.479c2.256,0.074,4.732,0.123,7.441,0.145v9.941c1.656,0,4.21,0,5.866,0v-9.941
	c2.709-0.021,5.186-0.07,7.441-0.145c2.139,4.891,6.093,9.479,6.093,9.479s2.849,0,5.779,0c-1.475-1.477-4.376-6.714-5.997-9.748
	c2.915-0.179,5.353-0.401,7.386-0.651c2.221,5.162,6.636,10.186,6.636,10.186s1.983-0.35,4.022-0.709
	c-1.504-1.492-5.269-7.836-6.59-10.1c1.823-0.349,3.117-0.714,4.035-1.058c5.083,5.644,11.218,11.128,18.292,14.918
	C160.053,167.973,170.006,191.925,170.006,212.769z M15.16,433.756c-1.339-1.153-2.412-2.252-3.263-3.243v3.33v5.995v3.33
	c0.851,0.991,1.924,2.088,3.263,3.242v-3.329v-5.995V433.756z M15.16,420.395c-1.339-1.155-2.412-2.252-3.263-3.243v9.324
	c0.851,0.991,1.924,2.089,3.263,3.242V420.395z M15.16,407.914c-1.339-1.154-2.412-2.252-3.263-3.243v9.324
	c0.851,0.991,1.924,2.09,3.263,3.243V407.914z M15.16,394.866c-1.339-1.154-2.412-2.251-3.263-3.242v9.324
	c0.851,0.991,1.924,2.089,3.263,3.243V394.866z M15.16,382.338c-1.339-1.153-2.412-2.251-3.263-3.242v9.325
	c0.851,0.99,1.924,2.088,3.263,3.242V382.338z M15.16,369.291c-1.339-1.154-2.412-2.252-3.263-3.243v9.325
	c0.851,0.991,1.924,2.088,3.263,3.242V369.291z M15.16,256.575c-1.339-0.89-2.412-1.736-3.263-2.5v7.189
	c0.851,0.764,1.924,1.61,3.263,2.5V256.575z M15.16,243.941c-1.339-0.891-2.412-1.736-3.263-2.501v7.189
	c0.851,0.765,1.924,1.61,3.263,2.501V243.941z M15.16,230.183c-1.339-0.891-2.412-1.736-3.263-2.5v7.189
	c0.851,0.764,1.924,1.609,3.263,2.499V230.183z M15.16,212.861c-1.339-0.923-2.412-1.801-3.263-2.594v7.459
	c0.851,0.793,1.924,1.671,3.263,2.594V212.861z M15.16,201.43c-1.339-0.924-2.412-1.801-3.263-2.594v7.459
	c0.851,0.793,1.924,1.671,3.263,2.594V201.43z M23.419,439.301c-1.557-0.826-2.955-1.661-4.208-2.492v3.329v5.995v3.33
	c1.253,0.83,2.651,1.665,4.208,2.491v-3.328v-5.995V439.301z M23.419,425.938c-1.557-0.827-2.955-1.662-4.208-2.492v9.325
	c1.253,0.83,2.651,1.665,4.208,2.491V425.938z M23.419,413.459c-1.557-0.827-2.955-1.662-4.208-2.493v9.325
	c1.253,0.831,2.651,1.666,4.208,2.492V413.459z M23.419,400.412c-1.557-0.828-2.955-1.663-4.208-2.493v9.324
	c1.253,0.83,2.651,1.666,4.208,2.493V400.412z M23.419,387.883c-1.557-0.826-2.955-1.662-4.208-2.491v9.323
	c1.253,0.831,2.651,1.666,4.208,2.493V387.883z M23.419,374.836c-1.557-0.826-2.955-1.663-4.208-2.493v9.325
	c1.253,0.83,2.651,1.666,4.208,2.492V374.836z M23.419,260.851c-1.557-0.637-2.955-1.281-4.208-1.922v7.188
	c1.253,0.642,2.651,1.284,4.208,1.923V260.851z M23.419,248.217c-1.557-0.638-2.955-1.282-4.208-1.922v7.189
	c1.253,0.64,2.651,1.284,4.208,1.921V248.217z M23.419,234.458c-1.557-0.638-2.955-1.282-4.208-1.922v7.189
	c1.253,0.64,2.651,1.284,4.208,1.921V234.458z M23.419,217.297c-1.557-0.661-2.955-1.329-4.208-1.993v7.459
	c1.253,0.664,2.651,1.332,4.208,1.993V217.297z M23.419,205.866c-1.557-0.662-2.955-1.33-4.208-1.995v7.46
	c1.253,0.664,2.651,1.332,4.208,1.994V205.866z M34.484,443.91c-2.581-0.838-4.912-1.729-7.013-2.652v3.329v5.995v3.329
	c2.101,0.923,4.432,1.814,7.013,2.653v-3.329v-5.995V443.91z M34.484,430.549c-2.581-0.839-4.912-1.731-7.013-2.653v9.324
	c2.101,0.923,4.432,1.814,7.013,2.653V430.549z M34.484,418.067c-2.581-0.837-4.912-1.729-7.013-2.652v9.325
	c2.101,0.923,4.432,1.814,7.013,2.653V418.067z M34.484,405.021c-2.581-0.839-4.912-1.73-7.013-2.653v9.325
	c2.101,0.923,4.432,1.814,7.013,2.653V405.021z M34.484,392.493c-2.581-0.839-4.912-1.73-7.013-2.653v9.324
	c2.101,0.923,4.432,1.815,7.013,2.653V392.493z M34.484,379.445c-2.581-0.839-4.912-1.729-7.013-2.653v9.324
	c2.101,0.924,4.432,1.814,7.013,2.653V379.445z M34.484,264.404c-2.581-0.646-4.912-1.333-7.013-2.046v7.189
	c2.101,0.711,4.432,1.399,7.013,2.045V264.404z M34.484,251.771c-2.581-0.646-4.912-1.334-7.013-2.046v7.189
	c2.101,0.712,4.432,1.399,7.013,2.046V251.771z M34.484,238.012c-2.581-0.646-4.912-1.334-7.013-2.046v7.189
	c2.101,0.712,4.432,1.399,7.013,2.046V238.012z M34.484,220.984c-2.581-0.67-4.912-1.384-7.013-2.122v7.46
	c2.101,0.737,4.432,1.451,7.013,2.121V220.984z M34.484,209.553c-2.581-0.67-4.912-1.384-7.013-2.123v7.46
	c2.101,0.738,4.432,1.452,7.013,2.122V209.553z M99.044,221.699c4.029-0.019,7.83-0.117,11.411-0.287v-7.46
	c-3.581,0.17-7.382,0.27-11.411,0.287V221.699z M99.044,233.131c4.029-0.019,7.83-0.118,11.411-0.287v-7.46
	c-3.581,0.17-7.382,0.27-11.411,0.288V233.131z M99.044,249.718c4.029-0.018,7.83-0.113,11.411-0.276v-7.19
	c-3.581,0.164-7.382,0.26-11.411,0.278V249.718z M99.044,263.477c4.029-0.018,7.83-0.112,11.411-0.276v-7.19
	c-3.581,0.164-7.382,0.26-11.411,0.278V263.477z M99.044,276.111c4.029-0.019,7.83-0.114,11.411-0.278v-7.188
	c-3.581,0.163-7.382,0.259-11.411,0.277V276.111z M82.126,249.725c3.634,0,9.232,0,12.866,0v-7.188c-3.634,0-9.232,0-12.866,0
	V249.725z M82.126,263.484c3.634,0,9.232,0,12.866,0v-7.189c-3.634,0-9.232,0-12.866,0V263.484z M82.126,276.117
	c3.634,0,9.232,0,12.866,0v-7.189c-3.634,0-9.232,0-12.866,0V276.117z M66.664,221.412c3.582,0.17,7.382,0.269,11.411,0.287v-7.46
	c-4.029-0.018-7.829-0.117-11.411-0.287V221.412z M66.664,232.844c3.582,0.169,7.382,0.269,11.411,0.287v-7.459
	c-4.029-0.019-7.829-0.118-11.411-0.288V232.844z M66.664,249.441c3.582,0.163,7.382,0.259,11.411,0.276v-7.188
	c-4.029-0.019-7.829-0.114-11.411-0.278V249.441z M66.664,263.2c3.582,0.164,7.382,0.259,11.411,0.276v-7.188
	c-4.029-0.019-7.829-0.114-11.411-0.278V263.2z M66.664,275.833c3.582,0.164,7.382,0.26,11.411,0.278v-7.189
	c-4.029-0.019-7.829-0.114-11.411-0.277V275.833z M47.34,447.131c-3.184-0.596-6.114-1.271-8.805-2.009v3.33v5.995v3.329
	c2.69,0.737,5.621,1.412,8.805,2.009v-3.33v-5.995V447.131z M47.34,433.769c-3.184-0.597-6.114-1.271-8.805-2.008v9.324
	c2.69,0.737,5.621,1.412,8.805,2.009V433.769z M47.34,421.288c-3.184-0.596-6.114-1.271-8.805-2.007v9.324
	c2.69,0.736,5.621,1.412,8.805,2.008V421.288z M47.34,408.241c-3.184-0.597-6.114-1.271-8.805-2.009v9.325
	c2.69,0.736,5.621,1.412,8.805,2.008V408.241z M47.34,395.714c-3.184-0.597-6.114-1.272-8.805-2.009v9.324
	c2.69,0.737,5.621,1.412,8.805,2.009V395.714z M47.34,382.665c-3.184-0.596-6.114-1.271-8.805-2.008v9.324
	c2.69,0.737,5.621,1.412,8.805,2.009V382.665z M47.34,266.887c-3.184-0.459-6.114-0.979-8.805-1.549v7.189
	c2.69,0.569,5.621,1.09,8.805,1.549V266.887z M47.34,254.254c-3.184-0.46-6.114-0.98-8.805-1.549v7.188
	c2.69,0.569,5.621,1.089,8.805,1.549V254.254z M47.34,240.494c-3.184-0.459-6.114-0.979-8.805-1.549v7.189
	c2.69,0.569,5.621,1.09,8.805,1.549V240.494z M47.34,223.561c-3.184-0.477-6.114-1.017-8.805-1.606v7.459
	c2.69,0.591,5.621,1.13,8.805,1.607V223.561z M47.34,212.129c-3.184-0.477-6.114-1.018-8.805-1.606v7.459
	c2.69,0.59,5.621,1.13,8.805,1.606V212.129z M62.613,449.127c-4.028-0.328-7.763-0.771-11.221-1.305v3.328v5.996v3.329
	c3.458,0.535,7.192,0.978,11.221,1.305v-3.329v-5.996V449.127z M62.613,435.764c-4.028-0.327-7.763-0.77-11.221-1.305v9.325
	c3.458,0.534,7.192,0.978,11.221,1.305V435.764z M62.613,423.284c-4.028-0.328-7.763-0.77-11.221-1.305v9.325
	c3.458,0.534,7.192,0.977,11.221,1.305V423.284z M62.613,410.236c-4.028-0.327-7.763-0.77-11.221-1.305v9.324
	c3.458,0.535,7.192,0.978,11.221,1.305V410.236z M62.613,397.708c-4.028-0.326-7.763-0.77-11.221-1.305v9.325
	c3.458,0.535,7.192,0.977,11.221,1.305V397.708z M62.613,384.66c-4.028-0.327-7.763-0.769-11.221-1.305v9.325
	c3.458,0.536,7.192,0.978,11.221,1.305V384.66z M62.613,268.426c-4.028-0.253-7.763-0.594-11.221-1.006v7.189
	c3.458,0.412,7.192,0.753,11.221,1.005V268.426z M62.613,255.792c-4.028-0.253-7.763-0.593-11.221-1.006v7.188
	c3.458,0.413,7.192,0.753,11.221,1.007V255.792z M62.613,242.032c-4.028-0.252-7.763-0.593-11.221-1.005v7.189
	c3.458,0.412,7.192,0.753,11.221,1.005V242.032z M62.613,225.157c-4.028-0.263-7.763-0.615-11.221-1.044v7.46
	c3.458,0.428,7.192,0.781,11.221,1.043V225.157z M62.613,213.726c-4.028-0.263-7.763-0.616-11.221-1.044v7.459
	c3.458,0.429,7.192,0.781,11.221,1.044V213.726z M78.075,449.77c-4.029-0.023-7.829-0.147-11.411-0.36v3.33v5.995v3.33
	c3.582,0.212,7.382,0.336,11.411,0.359v-3.33V453.1V449.77z M78.075,436.407c-4.029-0.023-7.829-0.146-11.411-0.359v9.324
	c3.582,0.213,7.382,0.337,11.411,0.36V436.407z M78.075,423.927c-4.029-0.023-7.829-0.146-11.411-0.358v9.324
	c3.582,0.212,7.382,0.335,11.411,0.359V423.927z M78.075,410.88c-4.029-0.023-7.829-0.147-11.411-0.359v9.324
	c3.582,0.213,7.382,0.336,11.411,0.36V410.88z M78.075,398.353c-4.029-0.024-7.829-0.148-11.411-0.36v9.325
	c3.582,0.212,7.382,0.336,11.411,0.359V398.353z M78.075,385.305c-4.029-0.024-7.829-0.147-11.411-0.36v9.325
	c3.582,0.212,7.382,0.336,11.411,0.359V385.305z M94.993,449.778c-3.634,0-9.232,0-12.866,0v3.329v5.996v3.328
	c3.634,0,9.232,0,12.866,0v-3.328v-5.996V449.778z M94.993,436.416c-3.634,0-9.232,0-12.866,0v9.324c3.634,0,9.232,0,12.866,0
	V436.416z M94.993,423.937c-3.634,0-9.232,0-12.866,0v9.324c3.634,0,9.232,0,12.866,0V423.937z M94.993,410.888
	c-3.634,0-9.232,0-12.866,0v9.325c3.634,0,9.232,0,12.866,0V410.888z M94.993,398.36c-3.634,0-9.232,0-12.866,0v9.325
	c3.634,0,9.232,0,12.866,0V398.36z M94.993,385.312c-3.634,0-9.232,0-12.866,0v9.324c3.634,0,9.232,0,12.866,0V385.312z
	 M110.456,449.409c-3.581,0.213-7.382,0.337-11.411,0.36v3.33v5.994v3.33c4.029-0.023,7.83-0.147,11.411-0.359v-3.33v-5.995V449.409
	z M110.456,436.048c-3.581,0.213-7.382,0.336-11.411,0.359v9.325c4.029-0.023,7.83-0.147,11.411-0.36V436.048z M110.456,423.568
	c-3.581,0.212-7.382,0.335-11.411,0.358v9.325c4.029-0.024,7.83-0.147,11.411-0.359V423.568z M110.456,410.521
	c-3.581,0.212-7.382,0.336-11.411,0.359v9.325c4.029-0.024,7.83-0.147,11.411-0.36V410.521z M110.456,397.992
	c-3.581,0.212-7.382,0.336-11.411,0.36v9.324c4.029-0.023,7.83-0.147,11.411-0.359V397.992z M110.456,384.944
	c-3.581,0.213-7.382,0.336-11.411,0.36v9.324c4.029-0.023,7.83-0.147,11.411-0.359V384.944z M113.105,347.728
	c0-5.025-1.838-9.238-5.516-12.639c-3.677-3.401-9.039-5.976-16.085-7.722c-5.854-1.471-10.081-3.179-12.686-5.125
	c-2.604-1.945-3.906-4.372-3.906-7.284c0-3.278,1.203-5.936,3.608-7.974c2.404-2.038,5.858-3.057,10.362-3.057
	c4.842,0,8.558,1.211,11.146,3.631c2.588,2.421,3.883,5.592,3.883,9.514h8.642l0.091-0.275c0.154-5.301-1.938-9.958-6.273-13.971
	c-4.336-4.015-10.164-6.022-17.488-6.022c-6.802,0-12.34,1.752-16.613,5.253c-4.274,3.502-6.411,7.863-6.411,13.083
	c0,4.977,1.983,9.107,5.951,12.394c3.968,3.287,9.491,5.774,16.568,7.463c5.853,1.402,9.927,3.131,12.225,5.187
	c2.299,2.057,3.446,4.606,3.446,7.652c0,3.292-1.331,5.895-3.997,7.815c-2.667,1.917-6.281,2.877-10.847,2.877
	c-4.657,0-8.563-1.118-11.719-3.354c-3.156-2.235-4.734-5.499-4.734-9.789h-8.641l-0.092,0.275
	c-0.152,6.066,2.336,10.916,7.469,14.546c5.132,3.631,11.038,5.447,17.717,5.447c7.107,0,12.869-1.641,17.28-4.918
	C110.899,357.455,113.105,353.119,113.105,347.728z M125.727,447.822c-3.457,0.534-7.191,0.977-11.221,1.305v3.328v5.996v3.329
	c4.029-0.327,7.764-0.77,11.221-1.305v-3.329v-5.996V447.822z M125.727,434.459c-3.457,0.535-7.191,0.978-11.221,1.305v9.325
	c4.029-0.327,7.764-0.771,11.221-1.305V434.459z M125.727,421.979c-3.457,0.535-7.191,0.977-11.221,1.305v9.325
	c4.029-0.328,7.764-0.771,11.221-1.305V421.979z M125.727,408.932c-3.457,0.535-7.191,0.978-11.221,1.305v9.324
	c4.029-0.327,7.764-0.77,11.221-1.305V408.932z M125.727,396.403c-3.457,0.535-7.191,0.979-11.221,1.305v9.325
	c4.029-0.328,7.764-0.77,11.221-1.305V396.403z M125.727,383.355c-3.457,0.536-7.191,0.978-11.221,1.305v9.325
	c4.029-0.327,7.764-0.769,11.221-1.305V383.355z M125.727,267.42c-3.457,0.412-7.191,0.753-11.221,1.006v7.188
	c4.029-0.252,7.764-0.593,11.221-1.005V267.42z M125.727,254.786c-3.457,0.413-7.191,0.753-11.221,1.006v7.189
	c4.029-0.254,7.764-0.594,11.221-1.007V254.786z M125.727,241.027c-3.457,0.412-7.191,0.753-11.221,1.005v7.189
	c4.029-0.252,7.764-0.593,11.221-1.005V241.027z M125.727,224.113c-3.457,0.429-7.191,0.781-11.221,1.044v7.459
	c4.029-0.262,7.764-0.615,11.221-1.043V224.113z M125.727,212.682c-3.457,0.428-7.191,0.781-11.221,1.044v7.459
	c4.029-0.263,7.764-0.615,11.221-1.044V212.682z M138.583,445.122c-2.689,0.737-5.62,1.413-8.805,2.009v3.329v5.995v3.33
	c3.185-0.597,6.115-1.272,8.805-2.009v-3.329v-5.995V445.122z M138.583,431.761c-2.689,0.735-5.62,1.411-8.805,2.008v9.325
	c3.185-0.597,6.115-1.272,8.805-2.009V431.761z M138.583,419.281c-2.689,0.735-5.62,1.411-8.805,2.007v9.325
	c3.185-0.596,6.115-1.271,8.805-2.008V419.281z M138.583,406.232c-2.689,0.736-5.62,1.412-8.805,2.009v9.324
	c3.185-0.596,6.115-1.271,8.805-2.008V406.232z M138.583,393.705c-2.689,0.736-5.62,1.412-8.805,2.009v9.324
	c3.185-0.597,6.115-1.272,8.805-2.009V393.705z M138.583,380.657c-2.689,0.736-5.62,1.412-8.805,2.008v9.325
	c3.185-0.597,6.115-1.272,8.805-2.009V380.657z M138.583,265.338c-2.689,0.569-5.62,1.09-8.805,1.549v7.189
	c3.185-0.459,6.115-0.979,8.805-1.549V265.338z M138.583,252.705c-2.689,0.567-5.62,1.089-8.805,1.549v7.188
	c3.185-0.46,6.115-0.98,8.805-1.549V252.705z M138.583,238.945c-2.689,0.568-5.62,1.09-8.805,1.549v7.189
	c3.185-0.459,6.115-0.98,8.805-1.549V238.945z M138.583,221.954c-2.689,0.589-5.62,1.13-8.805,1.606v7.46
	c3.185-0.478,6.115-1.019,8.805-1.607V221.954z M138.583,210.522c-2.689,0.589-5.62,1.13-8.805,1.606v7.459
	c3.185-0.477,6.115-1.018,8.805-1.606V210.522z M149.648,441.258c-2.101,0.923-4.431,1.814-7.013,2.652v3.33v5.995v3.329
	c2.582-0.839,4.912-1.73,7.013-2.653v-3.329v-5.995V441.258z M149.648,427.896c-2.101,0.922-4.431,1.814-7.013,2.653v9.324
	c2.582-0.839,4.912-1.73,7.013-2.653V427.896z M149.648,415.415c-2.101,0.923-4.431,1.815-7.013,2.652v9.326
	c2.582-0.839,4.912-1.73,7.013-2.653V415.415z M149.648,402.367c-2.101,0.923-4.431,1.814-7.013,2.653v9.325
	c2.582-0.839,4.912-1.73,7.013-2.653V402.367z M149.648,389.84c-2.101,0.923-4.431,1.814-7.013,2.653v9.324
	c2.582-0.838,4.912-1.73,7.013-2.653V389.84z M149.648,376.792c-2.101,0.924-4.431,1.814-7.013,2.653v9.324
	c2.582-0.839,4.912-1.729,7.013-2.653V376.792z M149.648,262.358c-2.101,0.713-4.431,1.4-7.013,2.046v7.188
	c2.582-0.646,4.912-1.334,7.013-2.045V262.358z M149.648,249.725c-2.101,0.712-4.431,1.399-7.013,2.046v7.189
	c2.582-0.646,4.912-1.334,7.013-2.046V249.725z M149.648,235.966c-2.101,0.712-4.431,1.399-7.013,2.046v7.189
	c2.582-0.646,4.912-1.334,7.013-2.046V235.966z M149.648,218.862c-2.101,0.738-4.431,1.452-7.013,2.122v7.459
	c2.582-0.67,4.912-1.384,7.013-2.121V218.862z M149.648,207.43c-2.101,0.739-4.431,1.453-7.013,2.123v7.459
	c2.582-0.67,4.912-1.384,7.013-2.122V207.43z M157.908,436.809c-1.252,0.831-2.65,1.666-4.208,2.492v3.329v5.995v3.329
	c1.558-0.826,2.956-1.661,4.208-2.491v-3.33v-5.995V436.809z M157.908,423.446c-1.252,0.83-2.65,1.665-4.208,2.491v9.325
	c1.558-0.826,2.956-1.661,4.208-2.491V423.446z M157.908,410.966c-1.252,0.831-2.65,1.666-4.208,2.492v9.325
	c1.558-0.826,2.956-1.661,4.208-2.492V410.966z M157.908,397.919c-1.252,0.83-2.65,1.665-4.208,2.492v9.324
	c1.558-0.826,2.956-1.662,4.208-2.492V397.919z M157.908,385.392c-1.252,0.829-2.65,1.665-4.208,2.491v9.324
	c1.558-0.826,2.956-1.661,4.208-2.492V385.392z M157.908,372.343c-1.252,0.83-2.65,1.667-4.208,2.492v9.325
	c1.558-0.826,2.956-1.662,4.208-2.492V372.343z M157.908,258.929c-1.252,0.641-2.65,1.285-4.208,1.921v7.19
	c1.558-0.639,2.956-1.281,4.208-1.923V258.929z M157.908,246.295c-1.252,0.64-2.65,1.284-4.208,1.921v7.189
	c1.558-0.637,2.956-1.281,4.208-1.921V246.295z M157.908,232.536c-1.252,0.64-2.65,1.284-4.208,1.921v7.189
	c1.558-0.637,2.956-1.281,4.208-1.921V232.536z M157.908,215.304c-1.252,0.664-2.65,1.332-4.208,1.993v7.459
	c1.558-0.661,2.956-1.329,4.208-1.993V215.304z M157.908,203.871c-1.252,0.665-2.65,1.333-4.208,1.993v7.461
	c1.558-0.662,2.956-1.33,4.208-1.994V203.871z M165.222,430.514c-0.851,0.99-1.923,2.089-3.263,3.242v3.33v5.995v3.329
	c1.34-1.154,2.412-2.251,3.263-3.242v-3.329v-5.995V430.514z M165.222,417.152c-0.851,0.99-1.923,2.087-3.263,3.242v9.323
	c1.34-1.153,2.412-2.251,3.263-3.241V417.152z M165.222,404.671c-0.851,0.991-1.923,2.089-3.263,3.243v9.324
	c1.34-1.153,2.412-2.252,3.263-3.242V404.671z M165.222,391.624c-0.851,0.991-1.923,2.088-3.263,3.242v9.325
	c1.34-1.154,2.412-2.252,3.263-3.242V391.624z M165.222,379.097c-0.851,0.99-1.923,2.088-3.263,3.241v9.325
	c1.34-1.154,2.412-2.252,3.263-3.242V379.097z M165.222,366.049c-0.851,0.99-1.923,2.088-3.263,3.242v9.324
	c1.34-1.154,2.412-2.251,3.263-3.242V366.049z M165.222,254.075c-0.851,0.764-1.923,1.61-3.263,2.5v7.189
	c1.34-0.89,2.412-1.736,3.263-2.5V254.075z M165.222,241.441c-0.851,0.764-1.923,1.609-3.263,2.5v7.189
	c1.34-0.891,2.412-1.736,3.263-2.5V241.441z M165.222,227.683c-0.851,0.764-1.923,1.609-3.263,2.5v7.188
	c1.34-0.89,2.412-1.735,3.263-2.499V227.683z M165.222,210.268c-0.851,0.793-1.923,1.671-3.263,2.594v7.459
	c1.34-0.923,2.412-1.801,3.263-2.593V210.268z M165.222,198.836c-0.851,0.793-1.923,1.67-3.263,2.594v7.459
	c1.34-0.923,2.412-1.801,3.263-2.594V198.836z"/>
</svg>
